<?xml version="1.0" standalone="no"?><svg xmlns="http://www.w3.org/2000/svg" viewBox="0 0 1440 320"><path fill="#3A5EB8" fill-opacity="1" d="M0,32L17.1,37.3C34.3,43,69,53,103,64C137.1,75,171,85,206,122.7C240,160,274,224,309,240C342.9,256,377,224,411,197.3C445.7,171,480,149,514,160C548.6,171,583,213,617,240C651.4,267,686,277,720,277.3C754.3,277,789,267,823,245.3C857.1,224,891,192,926,186.7C960,181,994,203,1029,197.3C1062.9,192,1097,160,1131,133.3C1165.7,107,1200,85,1234,112C1268.6,139,1303,213,1337,218.7C1371.4,224,1406,160,1423,128L1440,96L1440,320L1422.9,320C1405.7,320,1371,320,1337,320C1302.9,320,1269,320,1234,320C1200,320,1166,320,1131,320C1097.1,320,1063,320,1029,320C994.3,320,960,320,926,320C891.4,320,857,320,823,320C788.6,320,754,320,720,320C685.7,320,651,320,617,320C582.9,320,549,320,514,320C480,320,446,320,411,320C377.1,320,343,320,309,320C274.3,320,240,320,206,320C171.4,320,137,320,103,320C68.6,320,34,320,17,320L0,320Z"></path></svg>